# xmcd CD database file
#
# Track frame offsets:
#	150
#	21722
#	37901
#	59641
#	78693
#	94063
#	116483
#	133042
#	145290
#	162383
#	178581
#	194877
#
# Disc length: 2884 seconds
#
# Revision: 0
# Processed by: cddbd v1.5.2PL0 Copyright (c) Steve Scherf et al.
# Submitted via: CDex 1.51
#
DISCID=b60b420c
DTITLE=Roland Brival - Kayam
DYEAR=2006
DGENRE=Jazz
TTITLE0=Damballa
TTITLE1=Mandé yo
TTITLE2=Dans les rues de Harlem
TTITLE3=Love is chain
TTITLE4=Série noire
TTITLE5=So song
TTITLE6=Let's find a day
TTITLE7=Mr Potts
TTITLE8=Tell me 
TTITLE9=Winners 
TTITLE10=Follow me
TTITLE11=Nevername
EXTD=YEAR: 2006
EXTT0=
EXTT1=
EXTT2=
EXTT3=
EXTT4=
EXTT5=
EXTT6=
EXTT7=
EXTT8=
EXTT9=
EXTT10=
EXTT11=
PLAYORDER=
